# xmcd
#
# Track frame offsets: 
#        150
#        19894
#        42334
#        61994
#        89310
#        113183
#        132908
#        151809
#        183658
#        208036
#        235739
#        259284
#        288629
#        319225
#
# Disc length: 4600 seconds
#
# Revision: 0
# Processed by: cddbd v1.5.2PL0 Copyright (c) Steve Scherf et al.
# Submitted via: ExactAudioCopyFreeDBPlugin 1.0
#
DISCID=cc11f60e
DTITLE=迈克尔·杰克逊 - 《纪念特辑1958-2009》
DYEAR=2001
DGENRE=Pop
TTITLE0=Beat It（反击）
TTITLE1=Billie Jean（比利金）
TTITLE2=Black Or White（黑与白）
TTITLE3=Thriller（颤栗）
TTITLE4=Ghosts（幽灵）
TTITLE5=Smooth Criminat（犯罪高手）
TTITLE6=Bad（真棒）
TTITLE7=Dangerous（危险）
TTITLE8=Man In The Mirror（镜中人）
TTITLE9=Don't Stop Till You Get Enough（永不停止）
TTITLE10=You Rock My World（你震撼我的世界）
TTITLE11=Heal The World（拯救世界）
TTITLE12=Earth Song（地球之歌）
TTITLE13=You Are Not Alone（你不孤单）
EXTD=
EXTT0=
EXTT1=
EXTT2=
EXTT3=
EXTT4=
EXTT5=
EXTT6=
EXTT7=
EXTT8=
EXTT9=
EXTT10=
EXTT11=
EXTT12=
EXTT13=
PLAYORDER=
